<?xml version="1.0" encoding="utf-8"?>
<!-- Generator: Adobe Illustrator 16.2.0, SVG Export Plug-In . SVG Version: 6.00 Build 0)  -->
<!DOCTYPE svg PUBLIC "-//W3C//DTD SVG 1.1//EN" "http://www.w3.org/Graphics/SVG/1.1/DTD/svg11.dtd">
<svg version="1.1" id="Слой_1" xmlns="http://www.w3.org/2000/svg" xmlns:xlink="http://www.w3.org/1999/xlink" x="0px" y="0px"
	 width="30.5px" height="28px" viewBox="0 0 30.5 28" enable-background="new 0 0 30.5 28" xml:space="preserve">
<path fill-rule="evenodd" clip-rule="evenodd" fill="none" d="M29,28c-0.828,0-1.5-0.672-1.5-1.5V21h-26v5.5
	C1.5,27.329,0.828,28,0,28s-1.5-0.672-1.5-1.5V21v-7V1.5C-1.5,0.672-0.828,0,0,0s1.5,0.672,1.5,1.5V14h29v6.5V21v5.5
	C30.5,27.329,29.828,28,29,28z M28.5,13h-24c-1.104,0-2-0.896-2-2c0-0.228,0.046-0.444,0.116-0.648C2.548,10.078,2.5,9.796,2.5,9.5
	C2.5,7.567,4.067,6,6,6c1.762,0,3.205,1.306,3.449,3H28.5c1.104,0,2,0.896,2,2S29.604,13,28.5,13z"/>
</svg>
