<?xml version="1.0" encoding="utf-8"?>
<!-- Generator: Adobe Illustrator 16.2.0, SVG Export Plug-In . SVG Version: 6.00 Build 0)  -->
<!DOCTYPE svg PUBLIC "-//W3C//DTD SVG 1.1//EN" "http://www.w3.org/Graphics/SVG/1.1/DTD/svg11.dtd">
<svg version="1.1" id="Слой_1" xmlns="http://www.w3.org/2000/svg" xmlns:xlink="http://www.w3.org/1999/xlink" x="0px" y="0px"
	 width="30.889px" height="35.246px" viewBox="0 0 30.889 35.246" enable-background="new 0 0 30.889 35.246" xml:space="preserve">
<path fill="none" stroke="#999999" stroke-miterlimit="10" d="M15.398,19.096H4.628c0-5.888,4.829-10.646,10.771-10.646
	c5.939,0,10.755,4.758,10.755,10.646H15.398z M10.646,23.838c0.787,0.122,1.327,0.854,1.204,1.633
	c-0.124,0.777-0.864,1.313-1.651,1.189c-0.787-0.139-1.327-0.854-1.204-1.633C9.134,24.25,9.859,23.717,10.646,23.838L10.646,23.838
	z M9.736,29.467c0.787,0.121,1.327,0.854,1.204,1.631c-0.124,0.778-0.864,1.313-1.651,1.189c-0.787-0.121-1.327-0.854-1.203-1.631
	C8.208,29.878,8.949,29.344,9.736,29.467L9.736,29.467z M8.825,35.094c0.787,0.122,1.327,0.854,1.203,1.633
	c-0.138,0.777-0.863,1.312-1.651,1.189c-0.787-0.123-1.326-0.855-1.204-1.633C7.297,35.506,8.038,34.973,8.825,35.094L8.825,35.094z
	 M5.848,23.717c0.739,0.274,1.126,1.098,0.849,1.83c-0.278,0.747-1.111,1.113-1.852,0.838c-0.741-0.273-1.126-1.082-0.85-1.83
	C4.273,23.823,5.091,23.441,5.848,23.717L5.848,23.717z M3.841,29.07c0.757,0.272,1.126,1.082,0.85,1.828
	c-0.262,0.732-1.095,1.115-1.853,0.84c-0.739-0.273-1.126-1.098-0.848-1.83C2.268,29.161,3.101,28.795,3.841,29.07L3.841,29.07z
	 M1.851,34.408c0.74,0.273,1.126,1.098,0.849,1.83c-0.278,0.746-1.111,1.113-1.852,0.839C0.092,36.816-0.278,35.994,0,35.246
	C0.262,34.514,1.095,34.133,1.851,34.408L1.851,34.408z M20.136,23.838c-0.787,0.122-1.327,0.854-1.188,1.633
	c0.124,0.777,0.864,1.313,1.651,1.189c0.785-0.139,1.311-0.854,1.188-1.633C21.663,24.25,20.923,23.717,20.136,23.838L20.136,23.838
	z M21.046,29.467c-0.787,0.121-1.313,0.854-1.188,1.631c0.124,0.778,0.864,1.313,1.65,1.189c0.787-0.121,1.313-0.854,1.188-1.631
	C22.573,29.878,21.833,29.344,21.046,29.467L21.046,29.467z M21.956,35.094c-0.787,0.122-1.313,0.854-1.188,1.633
	c0.125,0.777,0.863,1.312,1.65,1.189c0.787-0.123,1.326-0.855,1.188-1.633C23.483,35.506,22.743,34.973,21.956,35.094L21.956,35.094
	z M24.949,23.717c-0.756,0.274-1.126,1.098-0.864,1.83c0.278,0.747,1.111,1.113,1.867,0.838c0.741-0.273,1.127-1.082,0.849-1.83
	C26.522,23.823,25.69,23.441,24.949,23.717L24.949,23.717z M26.939,29.07c-0.74,0.272-1.126,1.082-0.85,1.828
	c0.277,0.732,1.111,1.115,1.853,0.84c0.756-0.273,1.127-1.098,0.85-1.83C28.514,29.161,27.696,28.795,26.939,29.07L26.939,29.07z
	 M28.946,34.408c-0.741,0.273-1.127,1.098-0.85,1.83c0.277,0.746,1.096,1.113,1.852,0.839c0.74-0.261,1.127-1.083,0.849-1.831
	C30.52,34.514,29.687,34.133,28.946,34.408L28.946,34.408z M15.398,23.747c0.787,0,1.435,0.642,1.435,1.435
	c0,0.776-0.647,1.418-1.435,1.418c-0.803,0-1.451-0.642-1.451-1.418C13.948,24.389,14.596,23.747,15.398,23.747L15.398,23.747z
	 M15.398,29.451c0.787,0,1.435,0.641,1.435,1.418c0,0.793-0.647,1.434-1.435,1.434c-0.803,0-1.451-0.641-1.451-1.434
	C13.948,30.092,14.596,29.451,15.398,29.451L15.398,29.451z M15.398,35.154c0.787,0,1.435,0.641,1.435,1.419
	c0,0.793-0.647,1.434-1.435,1.434c-0.803,0-1.451-0.641-1.451-1.434C13.948,35.795,14.596,35.154,15.398,35.154L15.398,35.154z
	 M16.524,6.757V0h-2.269v6.757c-0.586,0.274-0.972,0.777-0.972,1.342c0,0.016,0,0.03,0,0.046c0.679-0.123,1.388-0.199,2.114-0.199
	c0.709,0,1.419,0.076,2.099,0.199c0-0.016,0-0.031,0-0.046C17.497,7.534,17.111,7.031,16.524,6.757L16.524,6.757z M4.566,19.813
	h21.646c0.681,0,1.221,0.533,1.221,1.188l0,0c0,0.657-0.54,1.205-1.221,1.205H4.566c-0.663,0-1.203-0.548-1.203-1.205l0,0
	C3.363,20.346,3.903,19.813,4.566,19.813L4.566,19.813z"/>
</svg>
