<?xml version="1.0" encoding="utf-8"?>
<!-- Generator: Adobe Illustrator 16.2.0, SVG Export Plug-In . SVG Version: 6.00 Build 0)  -->
<!DOCTYPE svg PUBLIC "-//W3C//DTD SVG 1.1//EN" "http://www.w3.org/Graphics/SVG/1.1/DTD/svg11.dtd">
<svg version="1.1" id="Слой_1" xmlns="http://www.w3.org/2000/svg" xmlns:xlink="http://www.w3.org/1999/xlink" x="0px" y="0px"
	 width="24.725px" height="25.662px" viewBox="0 0 24.725 25.662" enable-background="new 0 0 24.725 25.662" xml:space="preserve">
<g>
	<path fill="none" d="M23.169,5.611c-1.079-1.187-2.532-1.825-3.994-1.87l0.34-0.059c-0.017-0.138-0.597-3.221-2.522-3.636
		c-1.464-0.32-3.198,1.013-5.188,3.964C10.089,2.586,0.85-4.682,0.064,3.88c-1.099,11.691,12.287,1.846,12.215,0.515l0.091,0.062
		c2.253-3.371,3.675-3.867,4.479-3.699c1.179,0.258,1.804,2.188,1.969,2.993c-1.357,0.043-2.698,0.579-3.759,1.61
		c-1.862,1.811-2.307,4.614-1.262,6.885l-1.286,1.41L3.1,22.82l-0.209,2.297l0.51,0.545l3.141-0.173l1.209-1.181l-0.629-0.696
		l1.292-0.564l0.668,0.228l0.564-0.538l-0.388-0.53l1.195-0.271l0.033-0.914l1.447-0.506l1.188-1.176l-0.145-1.127l1.03,0.271
		l0.559-0.538l-0.247-0.951l0.322-0.313l0.646,0.57l0.376-0.385c0.639-0.658,1.044-1.191,1.318-1.596
		c1.986,0.744,4.291,0.34,5.927-1.267C25.225,11.762,25.341,7.997,23.169,5.611z M21.879,10.246
		c-0.954,0.934-2.467,0.887-3.362-0.104c-0.9-0.992-0.853-2.552,0.107-3.475c0.954-0.929,2.468-0.882,3.362,0.104
		C22.883,7.751,22.834,9.312,21.879,10.246z"/>
</g>
</svg>
