<?xml version="1.0" encoding="utf-8"?>
<!-- Generator: Adobe Illustrator 16.2.0, SVG Export Plug-In . SVG Version: 6.00 Build 0)  -->
<!DOCTYPE svg PUBLIC "-//W3C//DTD SVG 1.1//EN" "http://www.w3.org/Graphics/SVG/1.1/DTD/svg11.dtd">
<svg version="1.1" id="Слой_1" xmlns="http://www.w3.org/2000/svg" xmlns:xlink="http://www.w3.org/1999/xlink" x="0px" y="0px"
	 width="24.725px" height="25.662px" viewBox="0 0 24.725 25.662" enable-background="new 0 0 24.725 25.662" xml:space="preserve">
<g>
	<path fill="none" stroke="#999999" stroke-miterlimit="10" d="M23.169,5.611c-1.079-1.187-2.532-1.825-3.994-1.87l0.34-0.059
		c-0.017-0.138-0.597-3.221-2.521-3.636c-1.465-0.32-3.198,1.013-5.188,3.964C10.089,2.586,0.85-4.682,0.064,3.88
		c-1.099,11.691,12.287,1.846,12.215,0.515l0.092,0.062c2.253-3.371,3.675-3.867,4.479-3.699c1.179,0.258,1.804,2.188,1.969,2.993
		c-1.356,0.043-2.697,0.579-3.759,1.61c-1.862,1.811-2.307,4.614-1.262,6.885l-1.286,1.41L3.1,22.819l-0.209,2.298l0.51,0.545
		l3.142-0.173l1.209-1.182l-0.629-0.695l1.292-0.564l0.668,0.229l0.563-0.539l-0.388-0.529l1.195-0.271l0.032-0.914l1.447-0.506
		l1.188-1.176l-0.146-1.127l1.03,0.271l0.559-0.539l-0.247-0.95l0.322-0.313l0.646,0.57l0.376-0.385
		c0.639-0.658,1.044-1.191,1.317-1.596c1.986,0.744,4.291,0.34,5.928-1.268C25.225,11.762,25.341,7.997,23.169,5.611z
		 M21.879,10.246c-0.954,0.934-2.467,0.887-3.362-0.104c-0.899-0.992-0.853-2.552,0.107-3.475c0.954-0.929,2.468-0.882,3.361,0.104
		C22.883,7.751,22.834,9.312,21.879,10.246z"/>
</g>
</svg>
