<?xml version="1.0" encoding="utf-8"?>
<!-- Generator: Adobe Illustrator 16.2.0, SVG Export Plug-In . SVG Version: 6.00 Build 0)  -->
<!DOCTYPE svg PUBLIC "-//W3C//DTD SVG 1.1//EN" "http://www.w3.org/Graphics/SVG/1.1/DTD/svg11.dtd">
<svg version="1.1" id="Слой_1" xmlns="http://www.w3.org/2000/svg" xmlns:xlink="http://www.w3.org/1999/xlink" x="0px" y="0px"
	 width="24.244px" height="33.997px" viewBox="0 0 24.244 33.997" enable-background="new 0 0 24.244 33.997" xml:space="preserve">
<g>
	<path fill="none" stroke="#999999" stroke-miterlimit="10" d="M6.735,26.499L1.794,10.282h-2.169l5.031,16.548
		c-0.63,0.317-1.199,0.809-1.705,1.394c-0.649-0.132-2.947-0.546-3.506,0.036c-0.216,0.222-0.229,1.064,0,1.273
		c0.408,0.338,1.529,0.295,2.429,0.191C0.644,31.765,0,33.997,0,33.997h13.571C10.93,28.834,8.643,26.818,6.735,26.499z
		 M19.959,6.333H14.58c0,0-4.42,4.542-3.412,5.946c1.717,2.359,11.744,2.563,12.996,0C24.929,10.673,19.959,6.333,19.959,6.333z
		 M15.095,5.813h4.463V2.769C19.558,1.245,18.569,0,17.325,0c-0.451,0-0.868,0.169-1.219,0.453H14.67
		c-0.153,0-0.287,0.182-0.333,0.425c-0.234,0.089-0.51,0.243-0.717,0.511c-0.262,0.309-0.365,0.713-0.34,1.202H3.795v2.153h11.3
		V5.813z M13.481,2.592l0.152-0.011c-0.064-0.782,0.348-1.146,0.709-1.318c0.055,0.221,0.184,0.377,0.327,0.377h0.622
		c-0.105,0.294-0.166,0.615-0.184,0.952H13.481z M-0.159,8.849h1.71l-1.092-4.34l1.932,0.026V2.776h-4.148l0.937,3.557h-0.937v0.792
		h1.145L-0.159,8.849z"/>
</g>
</svg>
