<?xml version="1.0" encoding="utf-8"?>
<!-- Generator: Adobe Illustrator 16.2.0, SVG Export Plug-In . SVG Version: 6.00 Build 0)  -->
<!DOCTYPE svg PUBLIC "-//W3C//DTD SVG 1.1//EN" "http://www.w3.org/Graphics/SVG/1.1/DTD/svg11.dtd">
<svg version="1.1" id="Слой_1" xmlns="http://www.w3.org/2000/svg" xmlns:xlink="http://www.w3.org/1999/xlink" x="0px" y="0px"
	 width="37.693px" height="26.16px" viewBox="0 0 37.693 26.16" enable-background="new 0 0 37.693 26.16" xml:space="preserve">
<g>
	<path fill="none" stroke="#999999" stroke-miterlimit="10" d="M28.951,14.712c-5.061-5.061-13.342-5.015-18.463,0.106l-1.104,1.104
		l3.119,3.119l1.104-1.104c3.38-3.381,8.842-3.422,12.189-0.073c0.186,0.185,0.365,0.392,0.532,0.585l1.081,1.296l3.171-3.171
		l-0.928-1.078C29.429,15.227,29.201,14.963,28.951,14.712z M36.15,7.644c-0.374-0.462-0.771-0.902-1.196-1.329
		C26.467-2.173,12.55-2.098,3.947,6.505L2.094,8.357l5.235,5.236l1.853-1.852c5.687-5.687,14.862-5.755,20.48-0.137
		c0.326,0.326,0.616,0.661,0.901,1l1.802,2.185l5.326-5.326L36.15,7.644z M16.717,19.721c-1.46,1.461-1.435,3.838,0.035,5.307
		c1.491,1.492,3.864,1.514,5.324,0.054c1.443-1.442,1.427-3.82-0.063-5.312C20.541,18.299,18.16,18.277,16.717,19.721z"/>
</g>
</svg>
