<?xml version="1.0" encoding="utf-8"?>
<!-- Generator: Adobe Illustrator 16.2.0, SVG Export Plug-In . SVG Version: 6.00 Build 0)  -->
<!DOCTYPE svg PUBLIC "-//W3C//DTD SVG 1.1//EN" "http://www.w3.org/Graphics/SVG/1.1/DTD/svg11.dtd">
<svg version="1.1" id="Слой_1" xmlns="http://www.w3.org/2000/svg" xmlns:xlink="http://www.w3.org/1999/xlink" x="0px" y="0px"
	 width="23px" height="21px" viewBox="0 0 23 21" enable-background="new 0 0 23 21" xml:space="preserve">
<path fill="none" stroke="#999999" stroke-miterlimit="10" d="M0,21v-2.1l1.438-1.4h20.125L23,18.9V21H0z M0.753,16.1
	c-0.014-0.223-0.034-0.443-0.034-0.67c0-5.247,3.782-9.605,8.778-10.542C9.492,4.826,9.479,4.767,9.479,4.704
	c0-0.874,0.565-1.608,1.348-1.883V2.497c-0.401-0.232-0.674-0.66-0.674-1.156C10.153,0.601,10.756,0,11.5,0
	c0.745,0,1.348,0.601,1.348,1.341c0,0.496-0.272,0.923-0.674,1.156v0.33c0.773,0.279,1.33,1.01,1.33,1.877
	c0,0.062-0.013,0.121-0.018,0.181c5.004,0.929,8.795,5.292,8.795,10.543c0,0.227-0.021,0.448-0.034,0.672H0.753L0.753,16.1z
	 M8.625,6.3c0,0-4.313,2.8-5.031,6.3c-0.43,2.094,1.174,2.17,1.438,1.4c0,0,2.356-5.264,5.031-7C12.219,5.6,10.063,5.6,8.625,6.3z"
	/>
</svg>
