<?xml version="1.0" encoding="utf-8"?>
<!-- Generator: Adobe Illustrator 16.2.0, SVG Export Plug-In . SVG Version: 6.00 Build 0)  -->
<!DOCTYPE svg PUBLIC "-//W3C//DTD SVG 1.1//EN" "http://www.w3.org/Graphics/SVG/1.1/DTD/svg11.dtd">
<svg version="1.1" id="Слой_1" xmlns="http://www.w3.org/2000/svg" xmlns:xlink="http://www.w3.org/1999/xlink" x="0px" y="0px"
	 width="977.95px" height="411.02px" viewBox="0 0 977.95 411.02" enable-background="new 0 0 977.95 411.02" xml:space="preserve">
<g>
	<path fill="none" d="M500.505,205.241l-6.927-13.735h-8.293c0,0-3.145,6.503-6.79,13.95
		C488.793,208.189,500.505,205.241,500.505,205.241z M491.398,209.151c0.044-0.134,0.069-0.278,0.069-0.428v-1.249
		c0-0.157-0.028-0.308-0.076-0.447c-1.3,0.074-2.683,0.108-4.11,0.076c-0.033,0.119-0.052,0.242-0.052,0.371v1.249
		c0,0.153,0.026,0.302,0.073,0.438c-5.711,2.329-1.714,9.2-1.714,9.2c0.684,1.508,6.562,1.508,7.61,0
		C496.781,211.826,493.39,209.775,491.398,209.151z"/>
</g>
</svg>
