<?xml version="1.0" encoding="utf-8"?>
<!-- Generator: Adobe Illustrator 16.2.0, SVG Export Plug-In . SVG Version: 6.00 Build 0)  -->
<!DOCTYPE svg PUBLIC "-//W3C//DTD SVG 1.1//EN" "http://www.w3.org/Graphics/SVG/1.1/DTD/svg11.dtd">
<svg version="1.1" id="Слой_1" xmlns="http://www.w3.org/2000/svg" xmlns:xlink="http://www.w3.org/1999/xlink" x="0px" y="0px"
	 width="31px" height="32px" viewBox="473.475 190.01 31 32" enable-background="new 473.475 190.01 31 32" xml:space="preserve">
<path fill="none" stroke="#999999" stroke-miterlimit="10" d="M490.418,195.498h9.125l-0.021,9.229l-3.129-3.128l-2.948,2.949
	c0.661,1.164,1.043,2.507,1.043,3.941c0,4.419-3.581,8-8,8c-4.418,0-8-3.581-8-8c0-4.418,3.582-8,8-8
	c1.525,0,2.946,0.435,4.159,1.175l2.918-2.956L490.418,195.498z M482.489,208.489c0,2.209,1.791,4,4,4s4-1.791,4-4
	c0-2.21-1.791-4-4-4S482.489,206.279,482.489,208.489z"/>
</svg>
