<?xml version="1.0" encoding="utf-8"?>
<!-- Generator: Adobe Illustrator 16.2.0, SVG Export Plug-In . SVG Version: 6.00 Build 0)  -->
<!DOCTYPE svg PUBLIC "-//W3C//DTD SVG 1.1//EN" "http://www.w3.org/Graphics/SVG/1.1/DTD/svg11.dtd">
<svg version="1.1" id="Слой_1" xmlns="http://www.w3.org/2000/svg" xmlns:xlink="http://www.w3.org/1999/xlink" x="0px" y="0px"
	 width="40.054px" height="32.002px" viewBox="0 0 40.054 32.002" enable-background="new 0 0 40.054 32.002" xml:space="preserve">
<g>
	<g>
		<path fill="none" stroke="#999999" stroke-miterlimit="10" d="M15.982,12.982c0-4.413-3.578-7.991-7.991-7.991
			C3.578,4.991,0,8.569,0,12.982c0,3.714,2.538,6.828,5.973,7.723v3.306H1.977v3.995h3.996v3.996h4.058v-3.996h3.996v-3.995H10.03
			v-3.294C13.485,19.835,15.982,16.711,15.982,12.982z M7.991,16.978c-2.207,0-3.996-1.789-3.996-3.995
			c0-2.207,1.789-3.996,3.996-3.996c2.206,0,3.995,1.789,3.995,3.996C11.986,15.188,10.197,16.978,7.991,16.978z M30.929,0
			l3.148,3.21l-2.918,2.956C29.946,5.426,28.525,4.991,27,4.991c-4.418,0-8,3.582-8,8s3.582,8,8,8c4.419,0,8-3.582,8-8
			c0-1.434-0.382-2.777-1.043-3.941l2.948-2.949l3.129,3.128L40.054,0H30.929z M27,16.992c-2.209,0-4-1.792-4-4s1.791-4,4-4
			c2.21,0,4,1.791,4,4S29.21,16.992,27,16.992z"/>
	</g>
</g>
</svg>
