<?xml version="1.0" encoding="utf-8"?>
<!-- Generator: Adobe Illustrator 16.2.0, SVG Export Plug-In . SVG Version: 6.00 Build 0)  -->
<!DOCTYPE svg PUBLIC "-//W3C//DTD SVG 1.1//EN" "http://www.w3.org/Graphics/SVG/1.1/DTD/svg11.dtd">
<svg version="1.1" id="Слой_1" xmlns="http://www.w3.org/2000/svg" xmlns:xlink="http://www.w3.org/1999/xlink" x="0px" y="0px"
	 width="977.95px" height="411.02px" viewBox="0 0 977.95 411.02" enable-background="new 0 0 977.95 411.02" xml:space="preserve">
<g>
	<path fill="none" d="M484.896,209.629l2.519-15.005h-4.022l-2.514,15.005H484.896z M491.878,209.857
		c4.215,0,6.941-2.012,6.979-5.135c0.025-1.692-1.054-2.998-3.369-4.07c-1.395-0.685-2.247-1.134-2.247-1.844
		c0-0.645,0.724-1.306,2.294-1.306c1.315-0.024,2.269,0.272,3.002,0.581l0.365,0.167l0.549-3.251
		c-0.798-0.287-2.053-0.621-3.596-0.621c-3.977,0-6.753,2.029-6.777,4.945c-0.023,2.154,1.987,3.358,3.507,4.08
		c1.568,0.738,2.094,1.201,2.076,1.86c0,1.019-1.24,1.472-2.395,1.472c-1.605,0-2.456-0.233-3.774-0.789l-0.53-0.247l-0.547,3.346
		C488.345,209.487,490.073,209.835,491.878,209.857z M502.776,209.653c0,0,0.688-1.867,0.852-2.26h5.133
		c0.125,0.518,0.49,2.26,0.49,2.26h3.713l-3.229-15.006h-3.102c-0.955,0-1.686,0.273-2.115,1.241l-5.942,13.766H502.776z
		 M506.392,200.134c-0.043,0.043,0.327-0.871,0.527-1.43l0.258,1.281c0,0,0.771,3.582,0.936,4.323h-3.331
		C505.11,203.467,506.392,200.134,506.392,200.134z M473.183,202.797c-0.948-2.466-2.836-4.633-5.53-6.163l3.564,12.995h4.243
		l6.312-14.982h-4.247l-3.938,10.226L473.183,202.797z M474.142,202.379l-1.42-6.884c-0.242-0.957-0.935-1.241-1.808-1.29h-6.477
		l-0.037,0.333C469.415,195.781,472.758,198.776,474.142,202.379z M472.743,211.655l-1.54,4.092l-0.065-4.092h-2.275l-1.238,6.606
		h1.483l0.949-5.048l0.138,5.048h1.079l2.022-5.076l-0.905,5.076h1.585l1.224-6.606H472.743z M479.628,214.347
		c0.004-1.028-0.718-1.576-2.078-1.576c-0.585,0-1.106,0.081-1.896,0.286c0,0-0.204,1.119-0.22,1.208
		c0.264-0.08,0.901-0.251,1.676-0.242c0.741,0,1.017,0.131,1.017,0.487c0,0.098-0.015,0.171-0.063,0.351
		c-0.238-0.028-0.466-0.043-0.643-0.043c-1.759,0-2.785,0.76-2.785,2.069c0,0.868,0.591,1.468,1.451,1.468
		c0.723,0,1.257-0.21,1.66-0.649l-0.031,0.557c0,0,1.102,0,1.312,0c0.042-0.407,0.334-2.074,0.473-2.853
		C479.58,214.963,479.633,214.622,479.628,214.347z M476.737,217.213c-0.344,0-0.563-0.212-0.563-0.548
		c0-0.544,0.452-0.818,1.35-0.818c0.111,0,0.185,0.005,0.352,0.023C477.849,216.665,477.384,217.213,476.737,217.213z
		 M496.585,215.386c0-1.455,0.83-2.473,2.012-2.473c0.441,0,0.85,0.104,1.416,0.357l0.258-1.435
		c-0.232-0.083-1.049-0.345-1.738-0.345c-2.098,0-3.57,1.654-3.57,4.012c0,1.758,1.061,2.852,2.771,2.852
		c0.436,0,0.813-0.054,1.399-0.194l0.275-1.505c-0.523,0.231-0.954,0.338-1.344,0.338
		C497.142,216.993,496.585,216.389,496.585,215.386z M502.499,212.771c-0.584,0-1.102,0.081-1.894,0.286
		c0,0-0.204,1.119-0.222,1.208c0.262-0.08,0.906-0.251,1.676-0.242c0.742,0,1.018,0.131,1.018,0.487
		c0,0.098-0.014,0.171-0.063,0.351c-0.236-0.028-0.465-0.043-0.645-0.043c-1.753,0-2.779,0.76-2.779,2.069
		c0,0.868,0.585,1.468,1.447,1.468c0.724,0,1.258-0.21,1.657-0.649l-0.03,0.557c0,0,1.104,0,1.313,0
		c0.041-0.407,0.334-2.074,0.476-2.853c0.077-0.446,0.131-0.787,0.124-1.063C504.581,213.318,503.86,212.771,502.499,212.771z
		 M501.69,217.213c-0.348,0-0.57-0.212-0.57-0.548c0-0.544,0.455-0.818,1.354-0.818c0.114,0,0.188,0.005,0.354,0.023
		C502.799,216.665,502.331,217.213,501.69,217.213z M486.564,214.18l0.217-1.287h-0.81l0.185-0.813h-1.575
		c0,0-0.593,3.162-0.688,3.662c-0.101,0.573-0.23,1.195-0.218,1.432c0,0.765,0.443,1.182,1.253,1.182
		c0.368,0,0.705-0.054,1.138-0.176l0.213-1.188c-0.106,0.033-0.247,0.052-0.429,0.052c-0.378,0-0.545-0.123-0.545-0.401
		c0.002-0.166,0.266-1.438,0.447-2.462H486.564z M491.285,216.036c0.138-0.544,0.194-0.928,0.194-1.322
		c0-1.186-0.828-1.943-2.129-1.943c-1.586,0-2.753,1.354-2.753,3.188c0,1.573,0.92,2.394,2.681,2.396
		c0.552,0,1.075-0.07,1.616-0.216l0.264-1.337c-0.568,0.234-1.075,0.338-1.641,0.338c-0.912,0-1.472-0.325-1.368-1.104H491.285z
		 M489.275,213.993c0.897,0,0.741,0.849,0.733,0.957h-1.739C488.42,214.339,488.776,213.993,489.275,213.993z M482.389,214.04
		c0.311,0,0.736,0.028,1.136,0.084l0.225-1.248c-0.408-0.058-1.034-0.105-1.395-0.105c-1.77,0-2.383,0.828-2.378,1.818
		c0,0.681,0.368,1.146,1.207,1.499c0.638,0.268,0.74,0.347,0.74,0.592c0,0.336-0.284,0.487-0.911,0.487
		c-0.47,0-0.908-0.063-1.419-0.211c0,0-0.206,1.185-0.217,1.237c0.361,0.07,0.683,0.136,1.649,0.161c1.67,0,2.446-0.568,2.446-1.796
		c0-0.735-0.329-1.169-1.119-1.498c-0.666-0.271-0.741-0.331-0.741-0.581C481.612,214.188,481.877,214.04,482.389,214.04z
		 M512.007,211.655l-0.354,1.91c-0.431-0.507-0.898-0.734-1.512-0.734c-1.395,0-2.576,1.509-2.576,3.292
		c0,1.346,0.763,2.231,1.91,2.231c0.582,0,1.027-0.181,1.464-0.594l-0.075,0.501h1.496l1.206-6.606H512.007z M510.026,217.02
		c-0.541,0-0.813-0.354-0.813-1.057c0-1.058,0.512-1.806,1.229-1.806c0.542,0,0.839,0.371,0.839,1.053
		C511.281,216.274,510.763,217.02,510.026,217.02z M508.284,212.859c-0.664-0.124-1.033,0.208-1.52,0.845
		c0.039-0.275,0.11-0.539,0.096-0.812h-1.456c-0.195,1.661-0.552,3.345-0.827,5.008l-0.071,0.361h1.583
		c0.568-3.284,0.703-3.923,1.596-3.847C507.825,213.743,508.088,213.156,508.284,212.859z M493.728,213.704
		c0.039-0.275,0.11-0.539,0.096-0.812h-1.455c-0.199,1.661-0.553,3.345-0.826,5.008l-0.073,0.361h1.587
		c0.563-3.284,0.703-3.923,1.589-3.847c0.143-0.672,0.405-1.259,0.601-1.556C494.582,212.735,494.211,213.067,493.728,213.704z
		 M513.528,217.417c-0.26,0-0.473,0.192-0.473,0.425c0,0.23,0.213,0.42,0.473,0.42c0.262,0,0.469-0.189,0.469-0.42
		C513.997,217.609,513.79,217.417,513.528,217.417z M513.528,218.16c-0.199,0-0.355-0.144-0.355-0.318
		c0-0.179,0.156-0.321,0.355-0.321c0.196,0,0.357,0.143,0.357,0.321C513.886,218.017,513.725,218.16,513.528,218.16z
		 M513.649,217.674c-0.035-0.017-0.068-0.019-0.109-0.019h-0.173v0.369h0.095v-0.147h0.072l0.066,0.147h0.102l-0.072-0.163
		c0.043-0.015,0.072-0.051,0.072-0.096C513.702,217.728,513.683,217.694,513.649,217.674z M513.573,217.811
		c-0.018,0.009-0.035,0.005-0.058,0.005h-0.054v-0.094h0.054c0.015,0,0.044-0.002,0.063,0.006c0.015,0.011,0.025,0.021,0.025,0.038
		S513.593,217.799,513.573,217.811z"/>
</g>
</svg>
