<?xml version="1.0" encoding="utf-8"?>
<!-- Generator: Adobe Illustrator 16.2.0, SVG Export Plug-In . SVG Version: 6.00 Build 0)  -->
<!DOCTYPE svg PUBLIC "-//W3C//DTD SVG 1.1//EN" "http://www.w3.org/Graphics/SVG/1.1/DTD/svg11.dtd">
<svg version="1.1" id="Слой_1" xmlns="http://www.w3.org/2000/svg" xmlns:xlink="http://www.w3.org/1999/xlink" x="0px" y="0px"
	 width="29px" height="36px" viewBox="473.475 188.01 29 36" enable-background="new 473.475 188.01 29 36" xml:space="preserve">
<path fill="none" stroke="#999999" stroke-miterlimit="10" d="M491.52,208.215v3.294h3.995v3.995h-3.995v3.996h-4.058v-3.996h-3.996
	v-3.995h3.996v-3.306c-3.435-0.895-5.974-4.009-5.974-7.723c0-4.413,3.578-7.991,7.991-7.991s7.991,3.578,7.991,7.991
	C497.471,204.209,494.975,207.333,491.52,208.215z M489.48,196.484c-2.207,0-3.995,1.789-3.995,3.996s1.789,3.996,3.995,3.996
	c2.208,0,3.996-1.789,3.996-3.996S491.688,196.484,489.48,196.484z"/>
</svg>
